<?xml version="1.0" encoding="utf-8"?>
<!-- Generator: Adobe Illustrator 16.0.3, SVG Export Plug-In . SVG Version: 6.00 Build 0)  -->
<!DOCTYPE svg PUBLIC "-//W3C//DTD SVG 1.1//EN" "http://www.w3.org/Graphics/SVG/1.1/DTD/svg11.dtd">
<svg version="1.1" xmlns="http://www.w3.org/2000/svg" xmlns:xlink="http://www.w3.org/1999/xlink" x="0px" y="0px" width="153.5px"
	 height="131px" viewBox="0 0 153.5 131" enable-background="new 0 0 153.5 131" xml:space="preserve">
<g id="BOTTOM_EVENTS">
</g>
<g id="HEADER_FOOTER_x3F_">
</g>
<g id="FOOTER-TEXT">
</g>
<g id="FOOOOOOTER">
</g>
<g id="TOP_THREE">
</g>
<g id="MIDDLE_EVENTS">
</g>
<g id="TOP_THREE-TEXT">
	<g>
		<path fill-rule="evenodd" clip-rule="evenodd" fill="#EF8437" d="M93.338,65.135c2.097,4.971,4.208,9.936,6.288,14.913
			c3.506,8.395,6.992,16.798,10.486,25.198c0.12,0.288,0.229,0.582,0.37,0.947c-23.483,0-46.892,0-70.497,0
			c5.388-13.969,10.75-27.87,16.112-41.771c0.06-0.053,0.119-0.105,0.178-0.158c0.563-0.282,1.172-0.218,1.768-0.218
			c11.038-0.006,22.077-0.005,33.115-0.002c0.558,0.001,1.122-0.04,1.661,0.163C93.307,64.34,93.022,64.905,93.338,65.135z"/>
		<path fill-rule="evenodd" clip-rule="evenodd" fill="#EF8437" d="M93.338,65.135c-0.323-0.124-0.278-0.401-0.275-0.66
			c-0.252-0.349-0.313-0.696-0.001-1.045c1.021,0.419,2.094,0.392,3.168,0.39c3.908-0.009,7.815-0.002,11.723-0.005
			c0.478,0,0.959-0.037,1.421,0.132c0.546,0.392,1.162,0.162,1.741,0.17c2.187,0.029,4.374,0.013,6.549,0.013
			c0.163-0.521-0.247-0.605-0.461-0.779c-11.558-9.343-9.813-27.199,3.474-33.872c9.001-4.521,18.201-4.249,27.334-0.105
			c0.723,0.327,0.979,0.729,0.96,1.535c-0.06,2.638-0.022,5.278-0.022,8.011c-1.464-0.689-2.858-1.42-4.308-2.016
			c-5.241-2.156-10.599-2.906-16.098-1.044c-8.147,2.758-11.19,12.109-6.063,18.68c2.442,3.131,5.817,4.599,9.676,5.116
			c5.156,0.691,9.854-0.806,14.417-2.973c0.895-0.424,1.789-0.847,2.719-1.286c0.245,0.284,0.131,0.609,0.131,0.895
			c-0.014,16.276-0.046,32.554-0.03,48.83c0.001,1.018-0.356,1.148-1.228,1.144c-6.199-0.031-12.399-0.04-18.598,0.01
			c-0.92,0.007-1.313-0.316-1.664-1.11c-5.838-13.196-11.716-26.376-17.54-39.579c-0.419-0.949-0.896-1.224-1.916-1.21
			c-4.759,0.066-9.519,0.028-14.278,0.031C93.692,64.407,93.022,64.218,93.338,65.135z"/>
		<path fill-rule="evenodd" clip-rule="evenodd" fill="#EF8437" d="M109.374,63.946c-0.312,0.371-0.739,0.236-1.122,0.237
			c-4.594,0.008-9.188-0.007-13.782,0.019c-0.65,0.004-1.149-0.115-1.452-0.723c-0.624-0.064-0.669-0.624-0.846-1.037
			c-2.961-6.948-5.819-13.939-8.734-20.907c-3.24-7.741-6.458-15.492-9.695-23.217c-5.203,13.707-10.307,27.48-15.547,41.203
			c-0.47,1.232-0.917,2.473-1.388,3.705c-0.172,0.449-0.336,0.902-0.729,1.217l0.021-0.02c-5.348,0-10.696,0-16.212,0
			c0.992-2.495,1.918-4.852,2.865-7.2C49.929,39.425,57.114,21.63,64.281,3.828c0.235-0.584,0.489-0.841,1.183-0.836
			C70.823,3.03,76.183,3.022,81.542,3c0.584-0.002,0.906,0.123,1.163,0.702c8.84,19.934,17.7,39.858,26.554,59.785
			C109.322,63.629,109.336,63.793,109.374,63.946z"/>
		<path fill-rule="evenodd" clip-rule="evenodd" fill="#EF8437" d="M5.941,55.434c1.561,0.906,3.011,1.799,4.508,2.607
			c3.553,1.916,7.302,2.94,11.38,2.343c0.717-0.105,1.406-0.293,2.049-0.62c2.283-1.162,2.64-3.706,0.743-5.419
			c-1.517-1.37-3.448-1.949-5.308-2.641c-2.831-1.053-5.71-1.985-8.311-3.573c-5.094-3.111-7.25-8.38-5.494-13.735
			c1.405-4.289,4.753-6.496,8.873-7.582c6.783-1.788,13.275-0.468,19.597,2.173c0.389,0.163,0.502,0.401,0.499,0.816
			c-0.021,2.396-0.01,4.792-0.01,7.279c-2.104-0.8-4.115-1.631-6.17-2.331c-2.893-0.983-5.852-1.58-8.933-1.066
			c-0.831,0.138-1.632,0.371-2.356,0.803c-1.877,1.119-2.062,3.1-0.432,4.562c1.304,1.17,2.929,1.739,4.523,2.35
			c2.597,0.995,5.249,1.86,7.722,3.15c3.005,1.567,5.661,3.576,6.774,6.921c1.446,4.348,0.858,8.42-2.24,11.971
			c-0.146,0.168-0.418,0.267-0.334,0.688c1.757,0,3.537-0.002,5.317,0c1.344,0.001,1.347,0.004,0.835,1.262
			c-5.12,12.589-10.236,25.179-15.369,37.763c-0.416,1.021-0.516,2.431-1.38,2.934c-0.813,0.474-2.097,0.155-3.174,0.157
			c-4.079,0.007-8.159-0.028-12.237,0.026c-0.922,0.013-1.114-0.259-1.111-1.136c0.03-10.998,0.025-21.995,0.018-32.993
			c-0.003-5.238-0.032-10.477-0.044-15.714C5.875,56.125,5.915,55.821,5.941,55.434z"/>
		<path fill-rule="evenodd" clip-rule="evenodd" fill="#EF8437" d="M20.595,120.897c0-0.88-0.009-1.76,0.005-2.639
			c0.004-0.25-0.131-0.626,0.261-0.677c0.332-0.043,0.863-0.214,0.979,0.169c0.248,0.821,0.552,0.239,0.811,0.092
			c1.016-0.579,1.987-0.606,2.832,0.273c0.358,0.373,0.565,0.388,0.951,0.029c0.798-0.739,1.763-0.954,2.754-0.451
			c0.971,0.493,1.203,1.424,1.201,2.437c-0.002,1.119-0.003,2.238,0.001,3.358c0.001,0.406,0.065,0.79-0.576,0.777
			c-0.553-0.012-0.79-0.153-0.769-0.747c0.038-1.078,0.005-2.158,0.012-3.238c0.006-0.959-0.328-1.672-1.39-1.724
			c-0.895-0.045-1.508,0.698-1.513,1.733c-0.005,1.079-0.014,2.159,0.005,3.238c0.008,0.455-0.039,0.732-0.624,0.74
			c-0.612,0.009-0.73-0.234-0.715-0.774c0.032-1.119,0.017-2.239,0.008-3.358c-0.007-0.901-0.311-1.622-1.354-1.575
			c-0.94,0.042-1.707,0.61-1.573,1.676c0.124,0.984,0.031,1.996,0.024,2.995c-0.003,0.494,0.169,1.049-0.709,1.039
			c-0.837-0.01-0.605-0.55-0.616-0.976C20.581,122.497,20.595,121.697,20.595,120.897z"/>
		<path fill-rule="evenodd" clip-rule="evenodd" fill="#EF8437" d="M128.655,120.847c0-0.878-0.001-1.757,0.001-2.635
			c0-0.277-0.037-0.607,0.35-0.643c0.308-0.028,0.845-0.144,0.893,0.1c0.181,0.919,0.506,0.322,0.818,0.146
			c1.715-0.972,3.486-0.027,3.582,1.952c0.062,1.274-0.011,2.554,0.023,3.831c0.015,0.538-0.188,0.668-0.69,0.668
			c-0.546,0.001-0.674-0.232-0.664-0.722c0.022-1.157,0.013-2.315,0.004-3.473c-0.007-0.916-0.374-1.569-1.381-1.581
			c-0.885-0.01-1.589,0.771-1.597,1.696c-0.01,1.037,0.01,2.075-0.009,3.112c-0.007,0.426,0.221,0.965-0.615,0.975
			c-0.87,0.01-0.711-0.533-0.714-1.032C128.652,122.442,128.655,121.645,128.655,120.847z"/>
		<path fill-rule="evenodd" clip-rule="evenodd" fill="#EF8437" d="M126.473,120.892c0,0.838,0.009,1.676-0.003,2.514
			c-0.012,0.809-0.707,1.256-1.136,0.692c-0.428-0.562-0.606-0.232-0.92-0.074c-1.889,0.955-3.476,0.025-3.527-2.092
			c-0.031-1.236,0-2.474-0.009-3.711c-0.003-0.398,0.026-0.688,0.562-0.681c0.489,0.007,0.733,0.112,0.721,0.662
			c-0.029,1.156-0.005,2.313-0.008,3.471c-0.003,0.974,0.352,1.642,1.439,1.632c0.956-0.009,1.593-0.678,1.604-1.67
			c0.014-1.117,0.014-2.234-0.001-3.352c-0.006-0.447,0.029-0.753,0.622-0.747c0.552,0.006,0.673,0.239,0.66,0.723
			C126.457,119.136,126.473,120.014,126.473,120.892z"/>
		<path fill-rule="evenodd" clip-rule="evenodd" fill="#EF8437" d="M94.627,122.529c0.633,0.196,1.208,0.691,1.945,0.719
			c0.452,0.017,0.919-0.015,1.079-0.534c0.143-0.466-0.182-0.727-0.54-0.951c-0.606-0.379-1.229-0.739-1.798-1.171
			c-0.573-0.436-0.859-1.023-0.667-1.781c0.204-0.805,0.768-1.203,1.529-1.31c0.468-0.065,0.966-0.06,1.431,0.024
			c0.874,0.159,1.514,0.546,1.087,1.633c-0.597-0.188-1.137-0.585-1.801-0.556c-0.364,0.016-0.758,0.038-0.895,0.443
			c-0.126,0.37,0.182,0.596,0.436,0.776c0.582,0.417,1.191,0.795,1.781,1.201c0.739,0.51,1.057,1.211,0.762,2.074
			c-0.287,0.842-0.962,1.251-1.831,1.3c-0.473,0.026-0.943,0.007-1.423-0.109C94.763,124.054,94.176,123.643,94.627,122.529z"/>
		<path fill-rule="evenodd" clip-rule="evenodd" fill="#EF8437" d="M9.854,119.159c-0.686-0.221-1.233-0.593-1.892-0.562
			c-0.328,0.016-0.672,0.053-0.81,0.394c-0.146,0.36,0.113,0.613,0.373,0.8c0.484,0.348,1.004,0.644,1.489,0.991
			c0.765,0.55,1.516,1.145,1.107,2.252c-0.405,1.096-1.288,1.447-2.386,1.37c-0.314-0.022-0.627-0.084-0.938-0.145
			c-0.932-0.182-1.439-0.638-0.989-1.704c0.592,0.195,1.139,0.633,1.815,0.69c0.458,0.039,0.929-0.014,1.144-0.461
			c0.255-0.531-0.195-0.791-0.562-1.032c-0.398-0.261-0.817-0.488-1.221-0.741c-0.864-0.54-1.569-1.219-1.183-2.334
			c0.375-1.079,1.323-1.269,2.348-1.221C9.581,117.521,9.932,117.842,9.854,119.159z"/>
		<path fill-rule="evenodd" clip-rule="evenodd" fill="#EF8437" d="M110.459,122.799c0.35,1.04-0.122,1.408-1.024,1.565
			c-2.094,0.366-3.785-0.606-4.253-2.502c-0.457-1.85,0.488-3.74,2.127-4.271c0.586-0.19,1.184-0.153,1.776-0.104
			c1.009,0.085,1.553,0.529,1.143,1.671c-1.16-0.542-2.354-0.973-3.317,0.301c-0.669,0.883-0.64,1.881-0.085,2.802
			C107.407,123.227,108.612,123.376,110.459,122.799z"/>
		<path fill-rule="evenodd" clip-rule="evenodd" fill="#EF8437" d="M141.365,119.19c-1.227-0.603-2.364-0.934-3.347,0.193
			c-0.647,0.743-0.709,2.119-0.092,2.904c0.972,1.237,2.229,0.944,3.545,0.522c0.316,0.882,0.113,1.397-0.883,1.533
			c-1.414,0.192-2.738,0.07-3.687-1.132c-0.96-1.217-0.93-2.607-0.361-3.958c0.696-1.655,2.893-2.364,4.478-1.528
			C141.462,117.96,141.462,117.96,141.365,119.19z"/>
		<path fill-rule="evenodd" clip-rule="evenodd" fill="#EF8437" d="M52.222,117.658c-0.908,2.11-1.81,4.221-2.725,6.325
			c-0.206,0.474-0.516,0.695-0.797,0.068c-0.957-2.128-1.885-4.268-2.824-6.403c1.052-0.332,1.553,0.04,1.866,0.975
			c0.325,0.972,0.819,1.888,1.278,2.914c0.668-0.927,0.992-1.948,1.36-2.93C50.713,117.715,51.184,117.289,52.222,117.658z"/>
		<path fill-rule="evenodd" clip-rule="evenodd" fill="#EF8437" d="M91.101,116.479c-0.193,0.915,0.254,1.19,1.157,1.095
			c0.381-0.041,1.002-0.313,1.026,0.547c0.023,0.854-0.581,0.648-0.978,0.593c-1.045-0.148-1.335,0.29-1.209,1.259
			c0.071,0.551,0.01,1.118,0.014,1.678c0.009,1.479,0.415,1.789,1.815,1.395c0.184-0.052,0.371-0.09,0.555-0.134
			c0.436,1.005-0.186,1.294-0.963,1.458c-1.247,0.264-2.273-0.255-2.592-1.326c-0.314-1.057-0.145-2.147-0.133-3.221
			c0.008-0.733-0.062-1.261-0.896-1.138C89.617,117.966,90.337,117.243,91.101,116.479z"/>
		<path fill-rule="evenodd" clip-rule="evenodd" fill="#EF8437" d="M57.232,119.156c0-1.394-0.002-2.788,0.001-4.182
			c0.001-0.423-0.117-0.877,0.599-0.894c0.66-0.015,0.678,0.325,0.676,0.815c-0.012,2.867-0.017,5.734,0.003,8.602
			c0.004,0.552-0.145,0.771-0.736,0.767c-0.663-0.006-0.54-0.43-0.542-0.808C57.229,122.023,57.232,120.59,57.232,119.156z"/>
		<path fill-rule="evenodd" clip-rule="evenodd" fill="#EF8437" d="M62.103,119.059c0,1.474-0.015,2.947,0.008,4.421
			c0.008,0.528-0.103,0.792-0.716,0.786c-0.643-0.007-0.562-0.395-0.562-0.79c0-2.867,0.01-5.734-0.007-8.602
			c-0.003-0.525,0.089-0.804,0.709-0.792c0.632,0.013,0.57,0.395,0.569,0.796C62.102,116.271,62.103,117.665,62.103,119.059z"/>
		<path fill-rule="evenodd" clip-rule="evenodd" fill="#EF8437" d="M148.312,119.153c0,1.434-0.011,2.866,0.005,4.3
			c0.006,0.48,0.009,0.818-0.663,0.818c-0.667,0-0.669-0.33-0.667-0.814c0.013-2.866,0.017-5.732-0.004-8.599
			c-0.004-0.547,0.13-0.785,0.728-0.775c0.596,0.011,0.608,0.337,0.604,0.771C148.305,116.287,148.312,117.721,148.312,119.153z"/>
		<path fill-rule="evenodd" clip-rule="evenodd" fill="#EF8437" d="M42.19,118.915c-1.182,1.328-0.62,2.951-0.763,4.457
			c-0.032,0.332,0.251,0.836-0.441,0.89c-0.638,0.049-0.934-0.106-0.912-0.834c0.051-1.63,0.007-3.264,0.021-4.896
			c0.003-0.434-0.196-0.954,0.613-1.009c0.893-0.061,0.715,0.496,0.729,0.988c0.005,0.164,0.031,0.312,0.208,0.379
			C41.833,118.765,42.015,118.772,42.19,118.915z"/>
		<path fill-rule="evenodd" clip-rule="evenodd" fill="#EF8437" d="M85.154,118.957c-1.12,1.302-0.61,2.877-0.738,4.347
			c-0.028,0.316,0.221,0.795-0.288,0.908c-0.503,0.111-1.02,0.188-0.991-0.675c0.055-1.669,0.001-3.342,0.027-5.012
			c0.006-0.366-0.264-0.91,0.487-0.982c0.667-0.063,0.853,0.213,0.778,0.814c-0.037,0.305,0.204,0.27,0.396,0.279
			C85.107,118.566,85.208,118.682,85.154,118.957z"/>
		<path fill-rule="evenodd" clip-rule="evenodd" fill="#EF8437" d="M143.442,120.742c0-0.838,0.022-1.677-0.009-2.513
			c-0.019-0.513,0.147-0.702,0.68-0.689c0.491,0.012,0.607,0.219,0.604,0.654c-0.013,1.795-0.01,3.59-0.001,5.385
			c0.002,0.396-0.013,0.692-0.552,0.682c-0.471-0.01-0.749-0.086-0.731-0.647C143.464,122.657,143.442,121.699,143.442,120.742z"/>
		<path fill-rule="evenodd" clip-rule="evenodd" fill="#EF8437" d="M54.952,120.981c0,0.876-0.029,1.755,0.01,2.63
			c0.025,0.557-0.223,0.656-0.708,0.649c-0.446-0.005-0.637-0.123-0.631-0.604c0.021-1.833,0.018-3.667,0.003-5.5
			c-0.003-0.471,0.192-0.604,0.643-0.615c0.523-0.013,0.706,0.176,0.69,0.69C54.933,119.147,54.952,120.064,54.952,120.981z"/>
		<path fill-rule="evenodd" clip-rule="evenodd" fill="#EF8437" d="M42.19,118.915c-0.181-0.009-0.362-0.017-0.543-0.024
			c0.897-1.465,1.805-1.816,2.858-1.121c0.372,0.245,0.591,0.479,0.245,0.925c-0.242,0.312-0.374,0.74-0.883,0.315
			C43.345,118.576,42.763,118.699,42.19,118.915z"/>
		<path fill-rule="evenodd" clip-rule="evenodd" fill="#EF8437" d="M85.154,118.957c-0.109-0.106-0.219-0.214-0.329-0.32
			c0.843-1.229,1.66-1.512,2.623-0.892c0.325,0.209,0.708,0.386,0.334,0.9c-0.266,0.367-0.428,0.786-0.965,0.329
			C86.281,118.52,85.711,118.732,85.154,118.957z"/>
		<path fill-rule="evenodd" clip-rule="evenodd" fill="#EF8437" d="M144.887,115.498c-0.05,0.422-0.236,0.725-0.715,0.768
			c-0.528,0.048-0.843-0.204-0.879-0.714c-0.032-0.451,0.221-0.746,0.689-0.781C144.49,114.732,144.797,114.975,144.887,115.498z"/>
		<path fill-rule="evenodd" clip-rule="evenodd" fill="#EF8437" d="M54.252,114.763c0.515,0.001,0.852,0.256,0.845,0.77
			c-0.005,0.439-0.294,0.729-0.761,0.747c-0.53,0.021-0.837-0.287-0.845-0.783C53.483,115.047,53.789,114.792,54.252,114.763z"/>
		<path fill-rule="evenodd" clip-rule="evenodd" fill="#EF8437" d="M15.337,117.458c-2.054-0.041-3.6,1.348-3.655,3.283
			c-0.059,2.061,1.383,3.61,3.41,3.665c2.186,0.059,3.73-1.337,3.778-3.415C18.916,118.966,17.45,117.501,15.337,117.458z
			 M15.243,123.217c-1.313-0.002-2.181-0.908-2.194-2.291c-0.013-1.388,0.831-2.273,2.174-2.279
			c1.387-0.007,2.271,0.907,2.253,2.332C17.458,122.348,16.588,123.22,15.243,123.217z"/>
		<path fill-rule="evenodd" clip-rule="evenodd" fill="#EF8437" d="M115.508,117.457c-2.055-0.007-3.579,1.384-3.646,3.325
			c-0.068,2,1.459,3.59,3.481,3.624c2.237,0.037,3.666-1.302,3.69-3.462C119.058,118.844,117.664,117.465,115.508,117.457z
			 M115.397,123.218c-1.291-0.023-2.188-0.992-2.172-2.348c0.016-1.332,0.953-2.246,2.282-2.225c1.314,0.021,2.262,0.981,2.25,2.282
			C117.745,122.33,116.804,123.242,115.397,123.218z"/>
		<path fill-rule="evenodd" clip-rule="evenodd" fill="#EF8437" d="M68.617,123.005c-1.304,0.388-2.416,0.048-2.947-0.888
			c-0.363-0.64-0.459-1.107,0.572-1.05c1.034,0.059,2.074,0.018,3.111,0.01c0.342-0.003,0.697,0.086,0.715-0.507
			c0.038-1.266-0.814-2.657-1.942-3.019c-1.383-0.443-2.929,0.146-3.621,1.378c-0.758,1.352-0.609,3.21,0.351,4.379
			c0.894,1.087,2.45,1.399,4.058,0.865c0.824-0.273,1.347-0.672,0.983-1.688C69.423,122.682,69.032,122.881,68.617,123.005z
			 M66.29,118.788c0.524-0.287,1.095-0.304,1.618-0.074c0.549,0.24,0.92,0.776,0.812,1.338c-0.095,0.49-0.682,0.166-1.043,0.238
			c-0.192,0.038-0.398,0.007-0.599,0.007c-0.16,0-0.33,0.036-0.478-0.008c-0.381-0.111-1.009,0.314-1.118-0.281
			C65.389,119.499,65.805,119.054,66.29,118.788z"/>
		<path fill-rule="evenodd" clip-rule="evenodd" fill="#EF8437" d="M34.27,121.068c1.115,0.048,2.233,0.024,3.35,0.002
			c0.254-0.005,0.624,0.192,0.665-0.382c0.092-1.283-0.901-2.854-2.084-3.164c-1.594-0.416-3.141,0.34-3.724,1.821
			c-0.553,1.406-0.228,3.277,0.798,4.217c1.205,1.104,2.604,1.021,4.034,0.535c0.775-0.264,1.066-0.764,0.706-1.588
			c-0.628,0.271-1.232,0.588-1.913,0.639c-1.034,0.078-1.888-0.203-2.351-1.236C33.504,121.36,33.491,121.034,34.27,121.068z
			 M33.568,120.295c0.221-1.094,0.719-1.658,1.7-1.709c0.705-0.037,1.237,0.239,1.532,0.898c0.221,0.494,0.209,0.839-0.491,0.816
			C35.436,120.273,34.562,120.295,33.568,120.295z"/>
		<path fill-rule="evenodd" clip-rule="evenodd" fill="#EF8437" d="M81.525,123.492c-0.094-0.443-0.334-0.119-0.521-0.094
			c-0.578,0.08-0.404-0.368-0.411-0.636c-0.03-1.157,0.036-2.321-0.064-3.472c-0.119-1.363-1.252-2.009-2.97-1.812
			c-1.305,0.149-1.671,0.626-1.511,2.04c0.64-0.434,1.244-0.901,2.061-0.843c0.586,0.043,0.968,0.27,1.097,0.885
			c0.138,0.662-0.301,0.806-0.769,0.974c-0.56,0.201-1.134,0.385-1.656,0.662c-0.89,0.474-1.257,1.256-0.881,2.208
			c0.39,0.987,1.259,1.205,2.185,0.916c0.636-0.198,1.143-0.471,1.807,0.035c0.348,0.266,0.924,0.021,1.341-0.263
			C81.446,123.947,81.582,123.76,81.525,123.492z M79.181,121.941c0.181,1.04-0.25,1.513-1.128,1.535
			c-0.549,0.015-0.883-0.33-0.918-0.896c-0.036-0.587,1.147-1.621,1.769-1.501C79.534,121.202,79.012,121.77,79.181,121.941z"/>
	</g>
</g>
<g id="MISSION">
</g>
<g id="Frame" display="none">
</g>
</svg>
